<svg xmlns="http://www.w3.org/2000/svg" viewBox="0 0 64 64">
  <rect width="64" height="64" rx="14" fill="#050505" />
  <rect x="1" y="1" width="62" height="62" rx="13" fill="none" stroke="#1f2937" stroke-width="2" />
  <path d="M22 15h14.5c7.2 0 11.5 3.5 11.5 9.3 0 3.7-1.8 6.4-5.2 7.9 4.2 1.4 6.4 4.3 6.4 8.4 0 6.3-4.8 10.4-12.4 10.4H22V15Zm13.6 14c3.2 0 5.1-1.5 5.1-4.1s-1.9-4-5.1-4h-6.4V29h6.4Zm.8 16.1c3.5 0 5.5-1.7 5.5-4.6 0-2.9-2.1-4.5-5.7-4.5h-7v9.1h7.2Z" fill="#5eead4" />
  <path d="M15 50V14h3v39h31v3H18c-1.7 0-3-1.3-3-3v-3Z" fill="#ffffff" opacity=".2" />
</svg>
